<?xml version="1.0" standalone="no"?>
<!DOCTYPE svg PUBLIC "-//W3C//DTD SVG 20010904//EN"
 "http://www.w3.org/TR/2001/REC-SVG-20010904/DTD/svg10.dtd">
<svg version="1.0" xmlns="http://www.w3.org/2000/svg"
 width="6000.000000pt" height="6000.000000pt" viewBox="0 0 6000.000000 6000.000000"
 preserveAspectRatio="xMidYMid meet">
<metadata>
Created by potrace 1.11, written by Peter Selinger 2001-2013
</metadata>
<g transform="translate(0.000000,6000.000000) scale(0.100000,-0.100000)"
fill="#000000" stroke="none">
<path d="M0 30000 l0 -30000 30000 0 30000 0 0 30000 0 30000 -30000 0 -30000
0 0 -30000z m26452 6392 c152 -53 261 -184 308 -369 11 -41 24 -131 30 -200
14 -180 14 -8575 -1 -8715 -13 -127 -62 -332 -96 -404 -13 -29 -47 -74 -74
-99 -82 -77 -173 -106 -334 -107 -171 -1 -283 40 -376 139 -90 95 -133 217
-150 423 -7 84 -9 1566 -7 4485 3 4133 5 4364 21 4435 53 224 200 384 389 424
87 18 219 13 290 -12z m-16382 -2812 c246 -15 515 -38 670 -56 1037 -121 1834
-347 2550 -720 212 -111 258 -157 307 -312 48 -152 25 -279 -79 -420 -78 -105
-178 -154 -313 -153 -75 0 -81 2 -231 76 -775 378 -1797 647 -2699 710 -49 4
-100 8 -112 10 -165 25 -1305 25 -1386 0 -7 -2 -52 -6 -102 -10 -138 -9 -465
-52 -615 -81 -664 -125 -1131 -361 -1355 -683 -93 -134 -145 -314 -145 -506 0
-140 19 -229 71 -333 97 -198 335 -354 711 -467 176 -53 476 -108 703 -130 33
-3 110 -10 170 -16 64 -6 613 -14 1325 -19 1211 -8 1364 -12 1780 -50 63 -6
142 -13 175 -16 403 -36 835 -122 1168 -230 420 -137 709 -306 968 -564 120
-120 185 -206 254 -342 65 -126 106 -245 137 -400 20 -99 23 -142 23 -353 -1
-210 -3 -253 -23 -340 -31 -144 -66 -246 -124 -360 -158 -315 -485 -618 -901
-835 -472 -245 -1202 -430 -1952 -495 -38 -3 -88 -8 -110 -10 -22 -2 -80 -7
-130 -10 -49 -4 -106 -9 -125 -10 -283 -27 -2154 -27 -2298 -1 -9 2 -53 7 -97
10 -44 4 -96 9 -115 11 -316 40 -488 68 -705 116 -289 64 -649 173 -870 264
-290 119 -649 343 -782 488 -157 171 -149 448 18 632 30 32 73 65 107 82 51
25 67 28 162 28 118 0 137 -7 275 -106 85 -61 270 -172 380 -227 328 -164 809
-314 1230 -383 395 -65 568 -72 1595 -66 866 5 1016 10 1436 52 952 93 1623
359 1876 744 164 250 150 630 -31 861 -228 290 -802 492 -1551 545 -47 3 -116
8 -155 11 -38 4 -540 7 -1115 9 -575 1 -1110 5 -1190 9 -380 16 -471 22 -732
42 -683 51 -1287 197 -1687 405 -340 177 -606 414 -740 658 -151 273 -212 661
-166 1041 61 493 255 825 680 1162 383 303 983 536 1656 642 85 13 179 27 209
30 30 4 109 13 175 21 177 21 493 45 720 55 234 10 881 4 1105 -10z m10670 0
c244 -19 246 -19 380 -35 710 -82 1210 -199 1748 -409 182 -71 369 -154 524
-233 104 -53 136 -74 182 -123 168 -182 175 -430 17 -588 -61 -61 -107 -87
-192 -107 -117 -27 -293 1 -425 68 -63 32 -352 146 -469 185 -598 200 -1285
338 -1956 392 -98 8 -830 5 -894 -4 -16 -2 -83 -7 -147 -11 -65 -3 -128 -8
-140 -10 -13 -2 -54 -6 -93 -10 -126 -12 -417 -55 -545 -81 -695 -143 -1173
-398 -1494 -799 -260 -324 -412 -729 -482 -1285 -21 -172 -30 -721 -15 -916
46 -580 195 -1017 469 -1379 61 -80 211 -234 297 -305 432 -354 1077 -564
1950 -635 44 -4 94 -9 110 -11 89 -13 847 -16 1025 -5 106 7 201 14 209 16 9
1 45 6 81 10 209 22 561 83 847 146 467 102 861 227 1228 389 246 109 394 119
548 37 142 -75 226 -248 197 -405 -16 -91 -81 -212 -144 -270 -148 -135 -852
-423 -1346 -551 -357 -92 -856 -177 -1223 -206 -40 -3 -85 -8 -102 -10 -192
-27 -1295 -27 -1467 0 -12 2 -66 6 -119 10 -53 3 -107 8 -120 10 -13 2 -53 6
-89 9 -439 42 -901 132 -1245 245 -390 127 -785 335 -1075 567 -109 87 -317
295 -404 404 -96 119 -224 314 -296 450 -254 479 -372 1008 -387 1730 -22
1055 192 1843 667 2460 89 116 325 352 440 441 629 488 1424 727 2700 815 342
24 985 26 1250 4z m13030 -5 c1098 -87 1894 -390 2431 -925 182 -181 307 -356
428 -600 187 -377 270 -781 259 -1266 -7 -305 -49 -548 -133 -766 -42 -108
-85 -167 -149 -201 l-41 -22 -3325 -1 c-1829 -1 -3327 -2 -3330 -3 -8 -1 -1
-138 16 -302 44 -445 184 -900 374 -1214 354 -586 940 -897 1860 -987 180 -17
1042 -17 1270 0 744 58 1416 203 1990 429 225 89 455 209 725 378 122 77 192
99 287 93 138 -10 284 -121 359 -274 32 -65 34 -74 34 -179 0 -100 -2 -115
-26 -160 -45 -84 -152 -175 -399 -338 -172 -113 -304 -184 -496 -266 -553
-235 -1214 -399 -2039 -506 -16 -2 -66 -6 -110 -10 -44 -4 -91 -8 -105 -10
-14 -2 -74 -7 -135 -10 -60 -4 -126 -9 -145 -12 -65 -8 -1014 -11 -1125 -3
-159 11 -266 20 -295 25 -14 2 -50 7 -80 10 -136 14 -434 69 -592 110 -632
160 -1179 464 -1562 866 -487 512 -742 1136 -838 2049 -20 196 -17 833 5 1040
78 721 272 1242 645 1739 94 126 353 394 467 483 336 263 715 461 1138 592
143 45 189 56 388 101 267 60 682 118 1004 141 362 26 914 26 1245 -1z m9295
10 c281 -23 486 -49 660 -85 196 -41 466 -116 541 -150 151 -68 245 -240 231
-425 -7 -95 -32 -166 -92 -255 -84 -126 -181 -176 -354 -187 -75 -4 -109 -2
-147 10 -141 47 -528 132 -731 162 -331 49 -794 48 -1143 -1 -748 -105 -1287
-364 -1682 -809 -149 -168 -259 -345 -355 -575 l-48 -115 -5 -2045 -6 -2045
-21 -95 c-51 -224 -86 -304 -163 -373 -60 -54 -130 -83 -234 -96 -201 -25
-362 28 -475 155 -93 104 -127 228 -142 504 -6 126 -9 1180 -7 2965 l4 2770
21 87 c29 115 77 233 116 284 41 54 106 97 187 125 88 30 333 34 422 6 111
-34 190 -117 232 -244 47 -145 59 -227 65 -448 l6 -210 27 45 c90 153 411 432
680 591 331 197 765 344 1188 403 375 53 554 65 900 60 146 -2 292 -6 325 -9z
m7515 1 c25 -2 86 -7 135 -11 80 -5 165 -14 305 -31 831 -101 1564 -461 2002
-984 370 -441 628 -1083 737 -1835 57 -394 56 -354 56 -2100 l0 -1610 -22 -85
c-35 -130 -85 -224 -162 -301 -101 -99 -184 -131 -351 -132 -216 -1 -351 86
-421 273 -59 156 -89 343 -89 559 l0 154 -35 -46 c-107 -139 -406 -348 -735
-513 -292 -145 -565 -242 -955 -339 -314 -78 -632 -129 -930 -150 -49 -4 -101
-9 -115 -12 -45 -9 -982 -12 -1115 -3 -938 61 -1572 203 -2110 472 -135 67
-210 111 -305 177 -371 259 -619 573 -734 928 -66 205 -81 315 -80 593 0 264
12 378 61 580 147 609 579 1079 1257 1370 322 138 633 219 1073 279 497 68
774 81 1743 81 714 0 931 -6 1200 -31 485 -45 1216 -198 1528 -319 100 -38
198 -103 229 -149 l23 -34 0 49 c0 82 -20 323 -36 434 -92 651 -394 1193 -830
1490 -282 192 -591 297 -1054 355 -309 39 -418 44 -995 39 -308 -3 -573 -6
-590 -8 -16 -2 -109 -7 -205 -11 -96 -4 -181 -8 -190 -10 -8 -1 -64 -6 -125
-10 -60 -3 -121 -8 -135 -10 -14 -2 -59 -6 -100 -10 -82 -7 -156 -14 -210 -20
-19 -2 -60 -7 -90 -10 -217 -23 -613 -88 -865 -141 -144 -30 -450 -117 -632
-178 -128 -43 -135 -44 -200 -35 -134 19 -236 86 -317 208 -61 92 -89 177 -89
276 -1 181 79 289 268 361 357 136 897 254 1495 328 545 67 1062 108 1615 126
250 8 1010 6 1095 -4z"/>
<path d="M32809 32736 c-2 -2 -58 -6 -124 -10 -271 -14 -564 -50 -820 -101
-714 -142 -1218 -436 -1548 -902 -191 -271 -357 -711 -391 -1038 -4 -33 -9
-77 -12 -97 l-6 -38 3062 0 3063 0 -6 248 c-6 278 -21 395 -72 571 -94 328
-267 582 -540 796 -380 298 -986 498 -1670 550 -44 4 -96 9 -115 11 -42 6
-815 15 -821 10z"/>
<path d="M49157 30084 c-1 -1 -101 -4 -222 -8 -122 -4 -232 -8 -245 -10 -14
-2 -63 -7 -110 -11 -98 -7 -120 -9 -290 -30 -574 -71 -969 -218 -1225 -457
-228 -212 -341 -473 -363 -834 -24 -403 61 -651 302 -881 255 -244 645 -410
1170 -498 154 -26 256 -40 361 -50 33 -3 105 -10 160 -16 159 -17 930 -23
1165 -10 487 28 882 89 1330 207 584 154 1077 390 1479 709 l101 79 0 748 c0
411 -3 748 -6 748 -4 0 -50 7 -103 15 -267 40 -1273 167 -1556 195 -55 6 -116
13 -135 15 -82 11 -353 35 -450 40 -58 3 -114 8 -125 10 -11 2 -83 7 -160 10
-77 4 -156 8 -175 10 -57 6 -897 23 -903 19z"/>
</g>
</svg>
